<svg width="14" height="14" viewBox="0 0 14 14" fill="none" xmlns="http://www.w3.org/2000/svg">
<path d="M3.18048 0.5H10.8196C11.7218 0.5 12.4532 1.23138 12.4532 2.1336V11.8664C12.4532 12.7686 11.7218 13.5 10.8196 13.5H3.18048C2.27827 13.5 1.54688 12.7686 1.54688 11.8664V2.1336C1.54688 1.23139 2.27826 0.5 3.18048 0.5Z" stroke="#C0612C"/>
<path d="M4.23384 3C4.17185 3.00012 4.11243 3.03085 4.0686 3.08545C4.02477 3.14006 4.0001 3.21408 4 3.2913C3.99986 3.32969 4.0058 3.36774 4.01748 3.40326C4.02916 3.43879 4.04636 3.47109 4.06808 3.49832C4.0898 3.52555 4.11563 3.54718 4.14407 3.56195C4.17252 3.57673 4.20302 3.58436 4.23384 3.58442H9.76616C9.79698 3.58436 9.82748 3.57673 9.85593 3.56195C9.88437 3.54718 9.9102 3.52555 9.93192 3.49832C9.95364 3.47109 9.97084 3.43879 9.98252 3.40326C9.9942 3.36774 10.0001 3.32969 10 3.2913C9.9999 3.21408 9.97523 3.14006 9.9314 3.08545C9.88757 3.03085 9.82815 3.00012 9.76616 3H4.23384ZM4.23384 5.43797C4.20302 5.43803 4.17252 5.44567 4.14407 5.46044C4.11563 5.47522 4.0898 5.49684 4.06808 5.52407C4.04636 5.5513 4.02916 5.58361 4.01748 5.61913C4.0058 5.65466 3.99986 5.6927 4 5.7311C4.0001 5.80832 4.02477 5.88234 4.0686 5.93694C4.11243 5.99154 4.17185 6.02227 4.23384 6.02239H9.76616C9.82815 6.02227 9.88757 5.99154 9.9314 5.93694C9.97523 5.88234 9.9999 5.80832 10 5.7311C10.0001 5.6927 9.9942 5.65466 9.98252 5.61913C9.97084 5.58361 9.95364 5.5513 9.93192 5.52407C9.9102 5.49684 9.88437 5.47522 9.85593 5.46044C9.82748 5.44567 9.79698 5.43803 9.76616 5.43797H4.23384ZM4.23384 7.82945C4.17185 7.82957 4.11243 7.8603 4.0686 7.9149C4.02477 7.9695 4.0001 8.04353 4 8.12075C3.99986 8.15914 4.0058 8.19719 4.01748 8.23271C4.02916 8.26824 4.04636 8.30054 4.06808 8.32777C4.0898 8.355 4.11563 8.37662 4.14407 8.3914C4.17252 8.40617 4.20302 8.41381 4.23384 8.41387H9.76616C9.79698 8.41381 9.82748 8.40617 9.85593 8.3914C9.88437 8.37662 9.9102 8.355 9.93192 8.32777C9.95364 8.30054 9.97084 8.26824 9.98252 8.23271C9.9942 8.19719 10.0001 8.15914 10 8.12075C9.9999 8.04353 9.97523 7.9695 9.9314 7.9149C9.88757 7.8603 9.82815 7.82957 9.76616 7.82945H4.23384ZM4.23384 10.4174C4.17185 10.4175 4.11243 10.4483 4.0686 10.5029C4.02477 10.5575 4.0001 10.6315 4 10.7087C4.0001 10.7859 4.02477 10.8599 4.0686 10.9145C4.11243 10.9691 4.17185 10.9999 4.23384 11H6.85618C6.88697 11.0001 6.91747 10.9927 6.94595 10.9781C6.97443 10.9635 7.00031 10.9421 7.02214 10.915C7.04396 10.888 7.06128 10.8558 7.07312 10.8204C7.08495 10.785 7.09107 10.7471 7.09112 10.7087C7.09107 10.6703 7.08495 10.6324 7.07312 10.597C7.06128 10.5616 7.04396 10.5294 7.02214 10.5024C7.00031 10.4753 6.97443 10.4539 6.94595 10.4393C6.91747 10.4247 6.88697 10.4173 6.85618 10.4174H4.23384Z" fill="#C0612C"/>
</svg>
