<?xml version="1.0" encoding="UTF-8" standalone="no"?>
<svg
   xmlns:dc="http://purl.org/dc/elements/1.1/"
   xmlns:cc="http://creativecommons.org/ns#"
   xmlns:rdf="http://www.w3.org/1999/02/22-rdf-syntax-ns#"
   xmlns:svg="http://www.w3.org/2000/svg"
   xmlns="http://www.w3.org/2000/svg"
   xmlns:sodipodi="http://sodipodi.sourceforge.net/DTD/sodipodi-0.dtd"
   xmlns:inkscape="http://www.inkscape.org/namespaces/inkscape"
   width="30"
   height="30"
   viewBox="0 0 7.9374996 7.9375002"
   version="1.1"
   id="svg8"
   inkscape:version="1.0 (6e3e5246a0, 2020-05-07)"
   sodipodi:docname="icon-anexo.svg">
  <defs
     id="defs2" />
  <sodipodi:namedview
     inkscape:snap-page="true"
     id="base"
     pagecolor="#3e3e3e"
     bordercolor="#666666"
     borderopacity="1.0"
     inkscape:pageopacity="0"
     inkscape:pageshadow="2"
     inkscape:zoom="89.6"
     inkscape:cx="13.8598"
     inkscape:cy="28.937388"
     inkscape:document-units="px"
     inkscape:current-layer="layer1"
     showgrid="false"
     inkscape:window-width="1366"
     inkscape:window-height="689"
     inkscape:window-x="0"
     inkscape:window-y="25"
     inkscape:window-maximized="1"
     fit-margin-top="0"
     fit-margin-left="0"
     fit-margin-right="0"
     fit-margin-bottom="0"
     inkscape:document-rotation="0"
     units="px" />
  <metadata
     id="metadata5">
    <rdf:RDF>
      <cc:Work
         rdf:about="">
        <dc:format>image/svg+xml</dc:format>
        <dc:type
           rdf:resource="http://purl.org/dc/dcmitype/StillImage" />
        <dc:title />
      </cc:Work>
    </rdf:RDF>
  </metadata>
  <g
     inkscape:label="Camada 1"
     inkscape:groupmode="layer"
     id="layer1"
     transform="translate(-76.846199,-118.83186)">
    <path
       id="path869"
       style="color:#000000;font-style:normal;font-variant:normal;font-weight:normal;font-stretch:normal;font-size:medium;line-height:normal;font-family:sans-serif;font-variant-ligatures:normal;font-variant-position:normal;font-variant-caps:normal;font-variant-numeric:normal;font-variant-alternates:normal;font-variant-east-asian:normal;font-feature-settings:normal;font-variation-settings:normal;text-indent:0;text-align:start;text-decoration:none;text-decoration-line:none;text-decoration-style:solid;text-decoration-color:#000000;letter-spacing:normal;word-spacing:normal;text-transform:none;writing-mode:lr-tb;direction:ltr;text-orientation:mixed;dominant-baseline:auto;baseline-shift:baseline;text-anchor:start;white-space:normal;shape-padding:0;shape-margin:0;inline-size:0;clip-rule:nonzero;display:inline;overflow:visible;visibility:visible;opacity:1;isolation:auto;mix-blend-mode:normal;color-interpolation:sRGB;color-interpolation-filters:linearRGB;solid-color:#000000;solid-opacity:1;vector-effect:none;fill:#1c1c1c;fill-opacity:1;fill-rule:nonzero;stroke:none;stroke-width:0.288332;stroke-linecap:round;stroke-linejoin:round;stroke-miterlimit:4;stroke-dasharray:none;stroke-dashoffset:0;stroke-opacity:1;color-rendering:auto;image-rendering:auto;shape-rendering:auto;text-rendering:auto;enable-background:accumulate;stop-color:#000000;stop-opacity:1"
       d="m 81.116264,118.83802 c -0.598106,0 -1.06987,0.5176 -1.069869,1.13759 v 3.89352 c -3.94e-4,0.008 -5.7e-4,0.0168 0,0.0248 v 0.17832 c 0,0.4171 0.341271,0.75839 0.758389,0.75839 0.417116,0 0.75613,-0.34152 0.756131,-0.75839 v -3.27056 c 9.46e-4,-0.0533 -0.01931,-0.1062 -0.05643,-0.14445 -0.03712,-0.0383 -0.09113,-0.0602 -0.144454,-0.0609 -0.05385,-1.2e-4 -0.106678,0.0225 -0.144455,0.0609 -0.03779,0.0384 -0.05963,0.0906 -0.05868,0.14445 v 3.27056 c 0,0.19939 -0.152717,0.35211 -0.352108,0.35211 -0.199392,0 -0.35211,-0.15272 -0.35211,-0.35211 v -3.27056 a 0.05897846,0.05897846 0 0 0 0,-0.002 c -1.43e-4,-0.007 -0.0014,-0.0135 -0.0023,-0.0203 v -0.0115 -0.79224 c 0,-0.41795 0.302729,-0.73131 0.665847,-0.7313 0.363121,0 0.663591,0.31315 0.663591,0.7313 v 0.27311 c -0.0021,0.0116 -0.0044,0.0224 -0.0045,0.0339 v 5.06044 c 0,0.57005 -0.432367,1.01344 -0.963787,1.01344 -0.531416,0 -0.961528,-0.44324 -0.961528,-1.01344 v -4.49133 c 1.11e-4,-0.0528 -0.02166,-0.10459 -0.05868,-0.1422 -0.03704,-0.0377 -0.08941,-0.0602 -0.142198,-0.0609 -0.05332,-10e-5 -0.106758,0.021 -0.144455,0.0587 -0.0377,0.0377 -0.05879,0.0912 -0.05868,0.14446 v 4.49164 c 0,0.77869 0.606363,1.41972 1.365551,1.41972 0.759189,0 1.370065,-0.64079 1.370065,-1.41972 v -1.43327 -0.0115 c 0.0012,-0.009 0.0024,-0.0199 0.0023,-0.0294 v -0.002 -3.89126 c 0,-0.61982 -0.469504,-1.13758 -1.067612,-1.13758 z" />
  </g>
</svg>
