<?xml version="1.0" encoding="UTF-8" standalone="no"?>
<svg
   xmlns:dc="http://purl.org/dc/elements/1.1/"
   xmlns:cc="http://creativecommons.org/ns#"
   xmlns:rdf="http://www.w3.org/1999/02/22-rdf-syntax-ns#"
   xmlns:svg="http://www.w3.org/2000/svg"
   xmlns="http://www.w3.org/2000/svg"
   xmlns:sodipodi="http://sodipodi.sourceforge.net/DTD/sodipodi-0.dtd"
   xmlns:inkscape="http://www.inkscape.org/namespaces/inkscape"
   width="30.913744"
   height="30.913744"
   viewBox="0 0 8.179261 8.1792616"
   version="1.1"
   id="svg8"
   inkscape:version="1.0 (6e3e5246a0, 2020-05-07)"
   sodipodi:docname="icon-turma.svg">
  <defs
     id="defs2" />
  <sodipodi:namedview
     inkscape:object-paths="true"
     inkscape:snap-intersection-paths="true"
     inkscape:object-nodes="true"
     inkscape:snap-midpoints="true"
     inkscape:snap-smooth-nodes="true"
     inkscape:snap-global="true"
     inkscape:guide-bbox="true"
     showguides="true"
     id="base"
     pagecolor="#3e3e3e"
     bordercolor="#666666"
     borderopacity="1.0"
     inkscape:pageopacity="0"
     inkscape:pageshadow="2"
     inkscape:zoom="11.313709"
     inkscape:cx="21.790313"
     inkscape:cy="15.810813"
     inkscape:document-units="px"
     inkscape:current-layer="layer1"
     showgrid="false"
     inkscape:window-width="1366"
     inkscape:window-height="689"
     inkscape:window-x="0"
     inkscape:window-y="25"
     inkscape:window-maximized="1"
     fit-margin-top="0"
     fit-margin-left="0"
     fit-margin-right="0"
     fit-margin-bottom="0"
     inkscape:document-rotation="0"
     units="px" />
  <metadata
     id="metadata5">
    <rdf:RDF>
      <cc:Work
         rdf:about="">
        <dc:format>image/svg+xml</dc:format>
        <dc:type
           rdf:resource="http://purl.org/dc/dcmitype/StillImage" />
        <dc:title />
      </cc:Work>
    </rdf:RDF>
  </metadata>
  <g
     inkscape:label="Camada 1"
     inkscape:groupmode="layer"
     id="layer1"
     transform="translate(-86.246666,-125.03651)">
    <path
       id="path841"
       style="color:#000000;font-style:normal;font-variant:normal;font-weight:normal;font-stretch:normal;font-size:medium;line-height:normal;font-family:sans-serif;font-variant-ligatures:normal;font-variant-position:normal;font-variant-caps:normal;font-variant-numeric:normal;font-variant-alternates:normal;font-variant-east-asian:normal;font-feature-settings:normal;font-variation-settings:normal;text-indent:0;text-align:start;text-decoration:none;text-decoration-line:none;text-decoration-style:solid;text-decoration-color:#000000;letter-spacing:normal;word-spacing:normal;text-transform:none;writing-mode:lr-tb;direction:ltr;text-orientation:mixed;dominant-baseline:auto;baseline-shift:baseline;text-anchor:start;white-space:normal;shape-padding:0;shape-margin:0;inline-size:0;clip-rule:nonzero;display:inline;overflow:visible;visibility:visible;isolation:auto;mix-blend-mode:normal;color-interpolation:sRGB;color-interpolation-filters:linearRGB;solid-color:#000000;solid-opacity:1;vector-effect:none;fill:#4e4e4e;fill-opacity:1;fill-rule:nonzero;stroke:none;stroke-width:2.5;stroke-linecap:round;stroke-linejoin:round;stroke-miterlimit:4;stroke-dasharray:none;stroke-dashoffset:0;stroke-opacity:1;color-rendering:auto;image-rendering:auto;shape-rendering:auto;text-rendering:auto;enable-background:accumulate;stop-color:#000000"
       d="M 25.845703 5.6992188 A 1.2499994 1.2499994 0 0 0 25.785156 5.703125 A 1.2499994 1.2499994 0 0 0 25.017578 6.0644531 A 1.2499994 1.2499994 0 0 0 25.017578 7.8359375 L 26 8.8183594 L 8.5566406 8.8183594 A 1.2499994 1.2499994 0 0 0 7.3085938 10.066406 A 1.2499994 1.2499994 0 0 0 8.5566406 11.320312 L 25.998047 11.320312 L 25.017578 12.302734 A 1.2499994 1.2499994 0 0 0 25.017578 14.066406 A 1.2499994 1.2499994 0 0 0 26.78125 14.066406 L 29.904297 10.951172 A 1.2501244 1.2501244 0 0 0 29.904297 9.1796875 L 26.78125 6.0644531 A 1.2499994 1.2499994 0 0 0 25.845703 5.6992188 z M 5.3242188 16.476562 A 1.2499994 1.2499994 0 0 0 5.2636719 16.480469 A 1.2499994 1.2499994 0 0 0 4.4960938 16.841797 L 1.3808594 19.964844 A 1.2501244 1.2501244 0 0 0 1.3808594 21.730469 L 4.4960938 24.84375 A 1.2499994 1.2499994 0 0 0 6.2597656 24.84375 A 1.2499994 1.2499994 0 0 0 6.2597656 23.080078 L 5.2832031 22.099609 L 22.722656 22.099609 A 1.2499994 1.2499994 0 0 0 23.96875 20.84375 A 1.2499994 1.2499994 0 0 0 22.722656 19.595703 L 5.2792969 19.595703 L 6.2597656 18.615234 A 1.2499994 1.2499994 0 0 0 6.2597656 16.841797 A 1.2499994 1.2499994 0 0 0 5.3242188 16.476562 z "
       transform="matrix(0.26458333,0,0,0.26458333,86.246666,125.03651)" />
  </g>
</svg>
