<?xml version="1.0" encoding="UTF-8" standalone="no"?>
<svg
   xmlns:dc="http://purl.org/dc/elements/1.1/"
   xmlns:cc="http://creativecommons.org/ns#"
   xmlns:rdf="http://www.w3.org/1999/02/22-rdf-syntax-ns#"
   xmlns:svg="http://www.w3.org/2000/svg"
   xmlns="http://www.w3.org/2000/svg"
   xmlns:sodipodi="http://sodipodi.sourceforge.net/DTD/sodipodi-0.dtd"
   xmlns:inkscape="http://www.inkscape.org/namespaces/inkscape"
   sodipodi:docname="leftSharpener.svg"
   inkscape:version="1.0 (6e3e5246a0, 2020-05-07)"
   id="svg8"
   version="1.1"
   viewBox="0 0 13.89385 5.0610151"
   height="19.128246"
   width="52.512192">
  <defs
     id="defs2" />
  <sodipodi:namedview
     units="px"
     inkscape:document-rotation="0"
     fit-margin-bottom="0"
     fit-margin-right="0"
     fit-margin-left="0"
     fit-margin-top="0"
     inkscape:window-maximized="1"
     inkscape:window-y="25"
     inkscape:window-x="0"
     inkscape:window-height="689"
     inkscape:window-width="1366"
     showgrid="false"
     inkscape:current-layer="layer1"
     inkscape:document-units="px"
     inkscape:cy="46.426762"
     inkscape:cx="57.105432"
     inkscape:zoom="3.959798"
     inkscape:pageshadow="2"
     inkscape:pageopacity="0"
     borderopacity="1.0"
     bordercolor="#666666"
     pagecolor="#3e3e3e"
     id="base" />
  <metadata
     id="metadata5">
    <rdf:RDF>
      <cc:Work
         rdf:about="">
        <dc:format>image/svg+xml</dc:format>
        <dc:type
           rdf:resource="http://purl.org/dc/dcmitype/StillImage" />
        <dc:title></dc:title>
      </cc:Work>
    </rdf:RDF>
  </metadata>
  <g
     transform="translate(-72.069012,-124.00518)"
     id="layer1"
     inkscape:groupmode="layer"
     inkscape:label="Camada 1">
    <path
       sodipodi:nodetypes="sscccssccccsccssscsss"
       id="rect815"
       d="m 74.59937,124.00549 c -0.09081,0 -0.181366,0.0345 -0.250954,0.10408 l -2.175324,2.17532 c -0.0332,0.0332 -0.05951,0.0737 -0.07748,0.11796 -0.0085,0.021 -0.0084,0.044 -0.01272,0.0659 -0.0045,0.0226 -0.01388,0.0431 -0.01388,0.0671 v 0.001 c -5e-6,0.0454 0.0092,0.0902 0.0266,0.133 0.01785,0.044 0.04461,0.0837 0.07748,0.1168 v 0.001 l 2.175324,2.17416 c 0.139176,0.13918 0.362733,0.13918 0.501909,0 0.139175,-0.13917 0.139096,-0.36281 0,-0.5019 l -1.56702,-1.56818 h 12.32452 c 0.196825,0 0.355038,-0.15926 0.355038,-0.35619 0,-0.19683 -0.158213,-0.35504 -0.355038,-0.35504 H 73.282149 l 1.568176,-1.56817 c 0.139175,-0.13918 0.139254,-0.36381 0,-0.50307 -0.06959,-0.0696 -0.160142,-0.10408 -0.250955,-0.10408 z"
       style="opacity:1;fill:#ffffff;fill-opacity:1;stroke:none;stroke-width:0.716309;stroke-miterlimit:4;stroke-dasharray:none;stroke-opacity:1" />
  </g>
</svg>
